<svg xmlns="http://www.w3.org/2000/svg" width="181" height="80" viewBox="0 0 181 80">
  <defs>
    <style>
      .cls-1 {
        fill-rule: evenodd;
      }
    </style>
  </defs>
  <path id="logo_monogatari" class="cls-1" d="M3462.61,3221.74l-1.96-.68,13.03-39.02-13.03-34.07,1.96-1.38,13.39,35.19Zm-2.52-42.37,2.46,2v0.35l-23.56,7.17c-2.45.78-4.47,1.49-5.98,2.11l-2.46-1.92,8.75-2.69,1.77-14.38-0.69.3a10.056,10.056,0,0,0-3.65,2.05l-2.27-2.3,6.93-2.55,1.51-11.79-2.58.89a34.758,34.758,0,0,0-4.85,2l-2.46-2.01,18.27-6.14a23.989,23.989,0,0,0,5.6-2.48l2.46,1.92v0.35l-14.49,4.85-1.45,11.7,6.86-2.44,1.46-3.93,3.4,3.15a6.835,6.835,0,0,0-2.46,3.84l-0.88,13.17,1.38-.42A35.482,35.482,0,0,0,3460.09,3179.37Zm-17-8.15-1.83,14.56,8.57-2.58,0.81-14.82Zm-8.13-6.15-17.06,6.36a33.183,33.183,0,0,0-4.35,1.9l-2.45-1.91,16.37-6.07a17.992,17.992,0,0,0,5.04-2.55l2.45,2v0.27Zm-10.07-1.26c-0.95-3.5-2.33-7.71-4.16-12.54l0.44-1.12c2.9,4.19,4.34,6.21,4.34,6.21a5.615,5.615,0,0,1,.82,2.47,16.487,16.487,0,0,1-.94,4.89Zm-15.85,16.56a8.473,8.473,0,0,1-2.52,5.58,10.625,10.625,0,0,1-1.88,1.39,11.073,11.073,0,0,1-1.93.93l-0.64-1.88c0.24-.08.42-0.15,0.56-0.21,0.21-.09.39-0.17,0.56-0.24,0.41-.17.79-0.36,1.13-0.54a10.786,10.786,0,0,0,1.08-.74,8.352,8.352,0,0,0,1.04-1.02,4.3,4.3,0,0,0,.76-1.43,9.144,9.144,0,0,0,.36-1.68c0.08-.82.13-1.67,0.13-2.54v-7.35l1.5-.54v7.04c0,0.6-.01,1.13-0.03,1.6C3409.13,3179.32,3409.09,3179.87,3409.04,3180.37Zm-7.64-7.25,1.46-.53v9.59l-1.45.52Zm-3.04.03c-0.08.62-.17,1.2-0.27,1.76-0.22,1.25-.48,2.42-0.78,3.5a18.94,18.94,0,0,1-1.98,4.65,15.946,15.946,0,0,1-2.75,3.42,17.374,17.374,0,0,1-1.53,1.29c-0.51.38-1.04,0.73-1.59,1.07l-0.83-1.6c0.59-.34,1.11-0.67,1.58-1a19.1,19.1,0,0,0,1.55-1.18,11.76,11.76,0,0,0,1.28-1.26,11.4,11.4,0,0,0,1.14-1.57c0.01-.01.03-0.04,0.04-0.05a0.363,0.363,0,0,0,.03-0.07,1.093,1.093,0,0,0,.08-0.15c0.02-.03.04-0.06,0.07-0.1a0.219,0.219,0,0,1,.03-0.05c0.01-.02.02-0.03,0.03-0.05a15.354,15.354,0,0,0-1.43-1.12,8.917,8.917,0,0,0-.78-0.47c-0.21-.12-0.47-0.27-0.77-0.45l0.93-1.67a7.486,7.486,0,0,1,.74.38c0.11,0.06.23,0.13,0.37,0.21,0.11,0.06.23,0.13,0.35,0.2a13.907,13.907,0,0,1,1.5,1.08,27.847,27.847,0,0,0,.95-3.03c0.12-.5.23-1.02,0.34-1.56,0.1-.49.2-1.01,0.29-1.55l-4.49,1.6-0.14.34c-0.27.76-.54,1.44-0.82,2.06-0.31.72-.63,1.38-0.95,1.99-0.35.62-.79,1.37-1.36,2.24l-1.21-.93c0.26-.37.49-0.68,0.67-0.94,0.22-.36.43-0.69,0.62-0.99a23.376,23.376,0,0,0,2.19-4.93,26.694,26.694,0,0,0,.67-2.64l1.52-.4c-0.04.19-.08,0.36-0.13,0.54-0.05.22-.1,0.4-0.14,0.56-0.1.4-.2,0.76-0.3,1.09l5.5-1.96C3398.51,3172.04,3398.43,3172.62,3398.36,3173.15Zm-12.66-4.26,1.16-.81a11.437,11.437,0,0,1,.49,1.38c0.06,0.23.13,0.47,0.2,0.74,0.05,0.2.12,0.44,0.19,0.72l-1.16.82A22.816,22.816,0,0,0,3385.7,3168.89Zm-1.09,4.16a18.167,18.167,0,0,0-.92-2.92l1.23-.87a10.657,10.657,0,0,1,.55,1.41c0.14,0.45.27,0.97,0.39,1.54Zm-3.34,1.25-0.01.57,4.69-1.67-0.05,1.96c-0.02.63-.04,1.2-0.06,1.73-0.02.61-.05,1.2-0.08,1.74-0.03.6-.05,1.18-0.09,1.74-0.04.61-.08,1.19-0.13,1.76a1.927,1.927,0,0,0-.01.24c-0.02.21-.04,0.38-0.04,0.49-0.02.17-.03,0.33-0.06,0.49a6.984,6.984,0,0,1-.17.96,2.963,2.963,0,0,1-.88,1.56,3.718,3.718,0,0,1-.62.39c-0.22.1-.47,0.21-0.76,0.31-0.25.1-.5,0.19-0.78,0.28q-0.33.105-.66,0.18l-0.47-1.92c0.21-.03.38-0.06,0.53-0.09,0.19-.04.38-0.08,0.55-0.12a8.267,8.267,0,0,0,1.06-.34,1.072,1.072,0,0,0,.69-0.8,2.993,2.993,0,0,0,.11-0.58c0.02-.13.05-0.32,0.07-0.58,0.01-.07.02-0.13,0.03-0.2,0.11-1.08.19-2.21,0.26-3.39,0.04-1.06.07-2.18,0.09-3.38l-3.33,1.19c-0.02.2-.04,0.41-0.05,0.61-0.02.23-.04,0.43-0.06,0.61-0.05.44-.09,0.84-0.13,1.2a21.456,21.456,0,0,1-4.15,9.89l-1.09-1.2c0.36-.51.67-0.96,0.92-1.35q0.495-.75.87-1.41a16.974,16.974,0,0,0,1.43-3.14,19.44,19.44,0,0,0,.56-2.33c0.12-.68.23-1.46,0.3-2.32l-3.91,1.39,0.01-1.91,3.99-1.42c0.03-.84.04-1.67,0.04-2.49l0.01-1.23,1.44-.51c0,0.55-.01,1.07-0.02,1.54C3381.3,3173.29,3381.29,3173.81,3381.27,3174.3Zm-13.85,12.63c2.78-3.11,5.32-6.78,6.59-16.4l1.32,0.12c-0.73,4.57-2.09,12.55-7.26,17.79Zm-5.85-1.96c0,0.81.04,1.08,0.63,0.84l1.52-.61c0.34-.14,1.84-0.81,2.15-0.94l-0.07,2.32-3.99,1.62c-0.88.36-1.39-.6-1.39-1.93v-5.61l-2.75,1.12v-2.19l2.75-1.11v-3.58l-2.33.94v-2.19l7.59-3.08v2.19l-4.11,1.67v3.58l4.7-1.91v2.19l-4.7,1.91v4.77Zm-9.08,17.09a100.348,100.348,0,0,1-3.59,15.39c-0.63,1.95-1.07,2.99-1.45,3.06a0.932,0.932,0,0,1-.75-0.48c-1.52-2.7-3.59-6-6.36-10.13l0.25-.74,6.42,6.01a94.679,94.679,0,0,0,4.03-19.15c0.76-4.93,1.58-14.59,2.46-28.9l-6.87,2.45,2.33,3.25a7.889,7.889,0,0,0-1,2.62q-2.835,19.38-7.18,28a74.744,74.744,0,0,1-12.73,19.21l-0.25-.65a85.007,85.007,0,0,0,10.71-17.71,75.287,75.287,0,0,0,5.6-18.21,84.593,84.593,0,0,0,1.64-13.65,12.433,12.433,0,0,0-.25-2.49l-4.97,1.76,1.51,4.8a2.418,2.418,0,0,0-.95,1.13,178.119,178.119,0,0,1-6.8,20.6,58.034,58.034,0,0,1-6.24,11.41l-0.25-.91a97.945,97.945,0,0,0,6.74-15.26,128.877,128.877,0,0,0,4.22-15.95,38.543,38.543,0,0,0,.75-5.46l-3.96,1.4c-0.32,1.11-.57,2.03-0.82,2.85a71.346,71.346,0,0,1-4.72,12.2l-0.25-1.35a127.127,127.127,0,0,0,4.78-16.4c1.2-5.54,2.21-11.4,2.96-17.56,0.31-2.41.51-4.89,0.63-7.45l0.76-.74,2.45,7.68a4.912,4.912,0,0,0-1.51,1.32c-1.26,6.51-2.39,11.95-3.52,16.43l16.49-5.73,2.08-3.86,2.9,3.23c-1.26,1.45-2.02,4.03-2.2,7.56A281.029,281.029,0,0,1,3352.49,3202.06Zm-28.15-27.82v14.23c1.57-1.41,3.21-2.93,4.91-4.63l0.51,0.96c-1.96,2.09-3.79,3.99-5.42,5.68v20.29c0,5.86-.13,9.72-0.32,11.76-0.25,1.62-.43,2.44-0.63,2.47l-2.27-5.8c0.83-1.72,1.27-4.41,1.27-8.08v-18.54c-2.15,2.3-4.22,4.42-6.11,6.5a29.434,29.434,0,0,0-4.22,4.94l-3.71-2.13c3.14-1.95,7.8-5.84,14.04-11.58v-15.37l-7.31,2.7a139.734,139.734,0,0,1-4.53,14.34l-0.7-.57q3.03-10.245,4.91-20.01c0.76-4.67,1.2-7.63,1.2-8.68a20.045,20.045,0,0,0-.25-2.05l0.75-.49,2.71,5.02c-1,1.05-1.89,3.48-2.77,7.31-0.19.82-.37,1.55-0.57,2.28l6.56-2.56v-14.41a48.7,48.7,0,0,0-.76-9.47l0.25-.31,3.97,3.66c-0.82.84-1.32,2.77-1.51,5.77v13.98l1.51-.54a7.524,7.524,0,0,0,2.08-1.59,1.737,1.737,0,0,1,.63-0.38l3.15,2.24v0.35Zm-13.99,46.12-1.97,1.38L3295,3186.55l13.38-39.96,1.97,0.76-13.03,38.71Zm51.83-22.58-0.71,2.27a11.352,11.352,0,0,0-3.82-.87l0.71-2.2A9.63,9.63,0,0,1,3362.18,3197.78Zm-2.8-5.44a10.052,10.052,0,0,1,3.94.77l-0.69,2.23a11.749,11.749,0,0,0-3.96-.84Zm9.76-.11c-1.66,7.98-3.99,13.93-10.37,17.2l-0.38-2.43c5.14-2.39,7.54-6.21,9.27-15.22Zm5,11.33-1.58.53v-9.98l1.58-.53v9.98Zm3.61,0.93c1.58-1.6,1.67-4.33,1.67-5.03v-7.96l1.6-.53v6.98c0,7.35-3.24,9.27-7.24,11.17l-0.5-1.86A12.329,12.329,0,0,0,3377.75,3204.49Zm17.36-7.39-12.1,4.02v-2.23l12.1-4.02v2.23Zm12.27-7.7,1.2-.62a18.3,18.3,0,0,1,.54,2.63l-1.21.7A14.135,14.135,0,0,0,3407.38,3189.4Zm-10.05,6.97v-2l8.44-2.8c-0.13-.62-0.23-1.01-0.33-1.33l1.22-.6a23.708,23.708,0,0,1,.54,2.63l-1.02.56a29.8,29.8,0,0,1-2.35,6.97,43.679,43.679,0,0,1,4.68,4l-1.32,2.09a29.378,29.378,0,0,0-4.28-4.22,29.434,29.434,0,0,1-5.42,7.4l-0.92-1.45c1.69-1.49,5.64-5.5,7.81-13.59Zm31.71-22.04,2.02,1.74v0.35l-10.2,3.56a13.92,13.92,0,0,0-2.59,1.07l-2.01-1.38,9.82-3.76A8.481,8.481,0,0,0,3429.04,3174.33Zm0.76,9.48,1.95,1.65v0.35l-10.58,3.38c-1.13.37-2.02,0.7-2.71,1l-1.95-1.31,10.14-3.64A11.852,11.852,0,0,0,3429.8,3183.81Zm-13.04,10.09,0.76-.13,1.57,5.39,8.94-3.6,1.52-2.89,2.2,2.66a5.763,5.763,0,0,0-1.45,3.05l-0.88,12.83,2.08,1.89v0.36l-11.53,4.23a34.959,34.959,0,0,1-.37,5.57c-0.13,1.07-.38,1.64-0.63,1.69a24.731,24.731,0,0,1-1.71-5.55,15.752,15.752,0,0,0,1.01-4.9l-0.51-10.21A80.938,80.938,0,0,0,3416.76,3193.9Zm3.15,21.36,6.23-2.51a6.2,6.2,0,0,0,1.52-.8l0.88-14.21-9.07,3.62Zm15.8-21.95,0.77-.48,1.82,6.66,12.34-4.47,1.83-3.38,2.46,2.62c-1.21,1.61-1.77,2.85-1.77,3.72l-1.07,13.29,2.08,1.9v0.35l-15.24,4.98a40.018,40.018,0,0,1-.38,4.18c-0.12,1.24-.38,1.9-0.63,1.94a35.969,35.969,0,0,1-1.95-6.46,26.969,26.969,0,0,0,.94-6.02l-0.18-7.13A102.01,102.01,0,0,0,3435.71,3193.31Zm3.22,21.88v0.87l9.83-3.24a2.8,2.8,0,0,0,1.26-.66l1.07-14.94-12.41,4.48Z" transform="translate(-3295 -3145)"/>
</svg>
